<?xml version="1.0" encoding="iso-8859-1"?>
<!-- Generator: Adobe Illustrator 19.0.0, SVG Export Plug-In . SVG Version: 6.00 Build 0)  -->
<svg version="1.1" id="Layer_1" xmlns="http://www.w3.org/2000/svg" xmlns:xlink="http://www.w3.org/1999/xlink" x="0px" y="0px"
	 viewBox="0 0 512.001 512.001" style="enable-background:new 0 0 512.001 512.001;" xml:space="preserve">
<path style="fill:#4C4B48;" d="M463.411,308.947c-2.571-0.453-4.776-2.095-5.947-4.43c-1.17-2.333-1.169-5.084,0.006-7.416
	c3.648-7.245,6.915-14.725,9.761-22.338h-33.767c-4.562,0-8.258-3.696-8.258-8.258V66.466c0-5.617-1.208-8.148-1.771-8.791
	c-1.065,0.094-3.744,1.211-7.49,4.957l-68.596,68.596c-2.6,2.599-6.608,3.167-9.825,1.393
	c-24.826-13.68-53.017-20.909-81.525-20.909c-28.508,0-56.699,7.23-81.525,20.909c-3.217,1.774-7.224,1.207-9.825-1.393
	L96.055,62.632c-3.787-3.788-6.484-4.888-7.486-4.961c-0.563,0.636-1.774,3.168-1.774,8.795v200.039
	c0,4.562-3.696,8.258-8.258,8.258H44.77c2.846,7.613,6.113,15.092,9.761,22.338c1.174,2.332,1.176,5.083,0.006,7.416
	c-1.17,2.334-3.376,3.977-5.947,4.43l-27.545,4.857c48.742,84.491,141.76,140.53,234.955,140.53s186.213-56.04,234.955-140.529
	L463.411,308.947z M200.911,302.462c-0.312,2.525-1.771,4.765-3.954,6.072c-8.919,5.341-18.72,8.164-28.341,8.164
	c-0.001,0-0.001,0-0.002,0c-4.749-0.001-9.433-0.695-13.92-2.063c-13.297-4.057-24.305-14.288-30.206-28.066
	c-6.626-15.479-6.138-33.561,1.305-48.372c1.19-2.37,3.446-4.023,6.065-4.445c2.617-0.423,5.279,0.438,7.154,2.314l59.543,59.545
	C200.353,297.41,201.222,299.937,200.911,302.462z M307.056,408.375c0,4.562-3.696,8.258-8.258,8.258
	c-4.562,0-8.258-3.696-8.258-8.258v-14.431c-14.433-2.357-26.854-10.788-34.54-22.575c-7.685,11.787-20.107,20.218-34.54,22.575
	v14.431c0,4.562-3.696,8.258-8.258,8.258c-4.562,0-8.258-3.696-8.258-8.258v-22.022c0-4.562,3.696-8.258,8.258-8.258
	c17.89,0,32.645-13.672,34.369-31.116l-23.728-14.486c-2.455-1.5-3.955-4.17-3.955-7.048c0-13.93,11.332-25.262,25.262-25.262
	h21.699c13.93,0,25.262,11.332,25.262,25.262c0,2.878-1.499,5.548-3.955,7.048l-23.728,14.486
	c1.724,17.444,16.48,31.116,34.369,31.116c4.562,0,8.258,3.696,8.258,8.258v22.022H307.056z M387.513,286.569
	c-5.9,13.78-16.908,24.01-30.206,28.066c-4.487,1.369-9.17,2.063-13.92,2.063c-9.622,0-19.424-2.823-28.343-8.164
	c-2.182-1.307-3.642-3.548-3.954-6.072c-0.312-2.525,0.557-5.053,2.356-6.852l59.543-59.545c1.875-1.875,4.539-2.735,7.154-2.314
	c2.618,0.422,4.874,2.076,6.065,4.445C393.652,253.007,394.138,271.09,387.513,286.569z"/>
<path d="M511.152,304.027c-1.163-2.363-3.381-4.028-5.974-4.485l-28.223-4.978c3.727-8.336,6.987-16.899,9.732-25.567
	c0.795-2.509,0.345-5.248-1.211-7.372c-1.555-2.124-4.03-3.378-6.663-3.378h-37.092V66.466c0-18.665-9.394-25.316-18.186-25.316
	c-6.282,0-12.766,3.298-19.27,9.802l-64.285,64.286c-25.884-13.13-54.784-20.044-83.98-20.044c-29.196,0-58.097,6.914-83.98,20.044
	l-64.284-64.285c-6.504-6.504-12.988-9.802-19.27-9.802c-8.791,0-18.186,6.65-18.186,25.316v191.781H33.188
	c-2.633,0-5.108,1.255-6.663,3.378c-1.556,2.125-2.005,4.862-1.211,7.372c2.745,8.668,6.005,17.23,9.732,25.567l-28.223,4.978
	c-2.592,0.457-4.812,2.123-5.974,4.485c-1.164,2.362-1.13,5.137,0.088,7.47C50.706,406.811,153.208,470.85,256,470.85
	s205.293-64.039,255.062-159.353C512.281,309.163,512.315,306.388,511.152,304.027z M256.001,454.333
	c-93.196,0-186.213-56.04-234.955-140.529l27.544-4.857c2.571-0.453,4.776-2.095,5.947-4.43c1.17-2.333,1.169-5.084-0.006-7.416
	c-3.648-7.245-6.915-14.725-9.761-22.338h33.767c4.562,0,8.258-3.696,8.258-8.258V66.466c0-5.628,1.212-8.159,1.774-8.795
	c1.002,0.073,3.699,1.173,7.486,4.961l68.596,68.596c2.601,2.599,6.608,3.167,9.825,1.393c24.826-13.68,53.017-20.909,81.525-20.909
	s56.699,7.23,81.525,20.909c3.217,1.774,7.225,1.207,9.825-1.393l68.596-68.596c3.745-3.746,6.425-4.863,7.49-4.957
	c0.564,0.643,1.771,3.176,1.771,8.791v200.039c0,4.562,3.696,8.258,8.258,8.258h33.767c-2.846,7.613-6.113,15.092-9.761,22.338
	c-1.174,2.332-1.176,5.083-0.006,7.416c1.17,2.334,3.376,3.977,5.947,4.43l27.544,4.857
	C442.213,398.294,349.197,454.333,256.001,454.333z"/>
<path style="fill:#FDAE2D;" d="M136.841,257.254c-1.192,7.605-0.259,15.598,2.831,22.815c4.038,9.432,11.083,16.098,19.841,18.769
	c2.923,0.893,5.985,1.344,9.101,1.345c3.518,0,6.801-0.558,9.753-1.401L136.841,257.254z"/>
<path d="M139.011,236.066c-1.875-1.875-4.536-2.736-7.154-2.314c-2.618,0.422-4.874,2.076-6.065,4.445
	c-7.443,14.811-7.93,32.894-1.305,48.372c5.9,13.78,16.908,24.01,30.206,28.066c4.486,1.369,9.17,2.062,13.92,2.063
	c0.001,0,0.001,0,0.002,0c9.62,0,19.423-2.823,28.341-8.164c2.182-1.307,3.642-3.548,3.954-6.072
	c0.312-2.525-0.557-5.053-2.356-6.852L139.011,236.066z M159.514,298.837c-8.757-2.671-15.804-9.336-19.841-18.769
	c-3.091-7.218-4.023-15.209-2.831-22.815l41.527,41.528c-2.953,0.843-6.235,1.401-9.753,1.401
	C165.499,300.182,162.438,299.73,159.514,298.837z"/>
<path style="fill:#FDAE2D;" d="M372.329,280.069c3.091-7.218,4.023-15.209,2.831-22.815l-41.527,41.528
	c2.953,0.843,6.235,1.401,9.754,1.401c3.114,0,6.176-0.453,9.1-1.345C361.245,296.167,368.292,289.501,372.329,280.069z"/>
<path d="M380.144,233.752c-2.615-0.422-5.279,0.438-7.154,2.314l-59.543,59.545c-1.799,1.799-2.668,4.327-2.356,6.852
	c0.312,2.525,1.771,4.765,3.954,6.072c8.92,5.341,18.72,8.164,28.343,8.164c4.749,0,9.432-0.695,13.92-2.063
	c13.297-4.057,24.305-14.288,30.206-28.066c6.626-15.479,6.139-33.561-1.305-48.372
	C385.018,235.827,382.762,234.173,380.144,233.752z M343.388,300.183c-3.519,0-6.802-0.558-9.754-1.401l41.527-41.528
	c1.192,7.605,0.259,15.598-2.831,22.815c-4.038,9.432-11.083,16.098-19.841,18.769C349.565,299.73,346.503,300.183,343.388,300.183z
	"/>
<path style="fill:#612280;" d="M274.611,321.413c-1.46-2.799-4.39-4.714-7.76-4.714h-21.699c-3.37,0-6.3,1.915-7.76,4.714
	l18.609,11.361L274.611,321.413z"/>
<path d="M298.798,378.096c-17.89,0-32.645-13.672-34.369-31.116l23.728-14.486c2.455-1.5,3.955-4.17,3.955-7.048
	c0-13.93-11.332-25.262-25.262-25.262h-21.699c-13.93,0-25.262,11.332-25.262,25.262c0,2.878,1.499,5.548,3.955,7.048l23.728,14.486
	c-1.724,17.444-16.48,31.116-34.369,31.116c-4.562,0-8.258,3.696-8.258,8.258v22.022c0,4.562,3.696,8.258,8.258,8.258
	c4.562,0,8.258-3.696,8.258-8.258v-14.431c14.433-2.357,26.854-10.788,34.54-22.575c7.686,11.787,20.107,20.218,34.54,22.575v14.431
	c0,4.562,3.696,8.258,8.258,8.258s8.258-3.696,8.258-8.258v-22.022C307.056,381.792,303.36,378.096,298.798,378.096z
	 M245.152,316.699h21.699c3.37,0,6.3,1.915,7.76,4.714l-18.61,11.362l-18.609-11.361
	C238.851,318.614,241.781,316.699,245.152,316.699z"/>
<g>
</g>
<g>
</g>
<g>
</g>
<g>
</g>
<g>
</g>
<g>
</g>
<g>
</g>
<g>
</g>
<g>
</g>
<g>
</g>
<g>
</g>
<g>
</g>
<g>
</g>
<g>
</g>
<g>
</g>
</svg>
